<svg width="25" height="24" viewBox="0 0 25 24" fill="none" xmlns="http://www.w3.org/2000/svg">
<path fill-rule="evenodd" clip-rule="evenodd" d="M13.7381 4.06783C14.1227 3.9185 14.5596 4.02075 14.838 4.32527L21.238 11.3253C21.5873 11.7073 21.5873 12.2928 21.238 12.6748L14.838 19.6748C14.5596 19.9793 14.1227 20.0816 13.7381 19.9322C13.3534 19.7829 13.1 19.4127 13.1 19V16.5142C9.94192 16.6062 8.00356 17.1315 6.87173 17.7046C5.59505 18.351 5.5 18.9545 5.5 19C5.5 19.5523 5.05228 20 4.5 20C3.94772 20 3.5 19.5523 3.5 19C3.5 14.5103 5.22771 11.5891 7.48131 9.8144C9.30557 8.3778 11.4175 7.73552 13.1 7.55543V5.00004C13.1 4.58742 13.3534 4.21717 13.7381 4.06783ZM5.84117 15.9861C5.883 15.9639 5.92537 15.942 5.96827 15.9203C7.60153 15.0933 10.1762 14.5 14.1 14.5C14.6523 14.5 15.1 14.9478 15.1 15.5V16.4243L19.145 12L15.1 7.57578V8.50004C15.1 9.05232 14.6523 9.50004 14.1 9.50004C12.6793 9.50004 10.5099 9.97511 8.71869 11.3857C7.47792 12.3628 6.37551 13.8212 5.84117 15.9861Z" fill="#9881EA"/>
</svg>
