<svg xmlns="http://www.w3.org/2000/svg" width="350" height="350" fill="none"><g filter="url(#a)"><path fill="#AD9AEE" d="M100 100h150v150H100z"/></g><path fill="#EAE5FA" d="M188.556 139.43c-.186 0-.373-.047-.536-.14-4.48-2.31-8.354-3.29-12.997-3.29-4.62 0-9.007 1.097-12.997 3.29-.56.303-1.26.093-1.586-.467a1.18 1.18 0 0 1 .466-1.586c4.34-2.357 9.1-3.57 14.117-3.57 4.97 0 9.31 1.096 14.07 3.546.583.304.793 1.004.49 1.564a1.14 1.14 0 0 1-1.027.653m-33.39 12.25a1.16 1.16 0 0 1-.61-.167 1.17 1.17 0 0 1-.562-1.081 1.16 1.16 0 0 1 .216-.595c2.31-3.267 5.25-5.834 8.75-7.63 7.326-3.78 16.706-3.804 24.056-.024 3.5 1.797 6.44 4.34 8.75 7.584a1.158 1.158 0 0 1 .036 1.302q-.124.196-.316.331a1.163 1.163 0 0 1-1.633-.28 21.9 21.9 0 0 0-7.91-6.86c-6.697-3.43-15.26-3.43-21.933.023-3.174 1.634-5.834 3.967-7.934 6.907-.186.327-.536.49-.91.49m14.584 28.163a1.1 1.1 0 0 1-.817-.35c-2.03-2.03-3.127-3.336-4.69-6.16-1.61-2.87-2.45-6.37-2.45-10.126 0-6.93 5.927-12.577 13.207-12.577s13.206 5.647 13.206 12.577c0 .653-.513 1.166-1.166 1.166a1.155 1.155 0 0 1-1.167-1.166c0-5.647-4.877-10.244-10.873-10.244-5.997 0-10.874 4.597-10.874 10.244 0 3.36.747 6.463 2.17 8.983 1.494 2.683 2.52 3.827 4.317 5.647.443.466.443 1.19 0 1.656-.257.234-.56.35-.863.35m16.73-4.316c-2.777 0-5.227-.701-7.234-2.077-3.476-2.357-5.553-6.183-5.553-10.243 0-.654.513-1.167 1.167-1.167.653 0 1.166.513 1.166 1.167 0 3.29 1.68 6.393 4.527 8.306 1.657 1.12 3.593 1.657 5.927 1.657.56 0 1.493-.07 2.426-.233a1.163 1.163 0 0 1 1.354.956 1.165 1.165 0 0 1-.957 1.354c-1.33.256-2.497.28-2.823.28m-4.69 4.806a1.4 1.4 0 0 1-.304-.046c-3.71-1.027-6.136-2.404-8.68-4.9a17.04 17.04 0 0 1-5.063-12.18c0-3.78 3.22-6.86 7.187-6.86s7.186 3.08 7.186 6.86c0 2.496 2.17 4.526 4.854 4.526 2.683 0 4.853-2.03 4.853-4.526 0-8.797-7.583-15.937-16.917-15.937-6.626 0-12.693 3.687-15.423 9.403-.91 1.89-1.377 4.107-1.377 6.534 0 1.82.164 4.69 1.564 8.423a1.14 1.14 0 0 1-.677 1.493 1.156 1.156 0 0 1-1.493-.676 25.9 25.9 0 0 1-1.704-9.24c0-2.8.537-5.344 1.587-7.56 3.103-6.51 9.987-10.734 17.523-10.734 10.617 0 19.25 8.19 19.25 18.27 0 3.78-3.22 6.86-7.186 6.86-3.967 0-7.187-3.08-7.187-6.86 0-2.496-2.17-4.526-4.853-4.526-2.684 0-4.854 2.03-4.854 4.526 0 3.99 1.54 7.724 4.364 10.524 2.216 2.193 4.34 3.406 7.63 4.316.63.164.98.817.816 1.424a1.14 1.14 0 0 1-1.096.886M130.112 212.18q-.684 0-1.206-.216a1.68 1.68 0 0 1-.81-.684q-.288-.486-.288-1.242v-7.902h2.286v7.614q0 .378.162.558.162.162.522.162.144 0 .306-.036.18-.036.324-.09l.252 1.512q-.342.18-.738.252a4.5 4.5 0 0 1-.81.072m5.22 0q-.684 0-1.206-.216a1.68 1.68 0 0 1-.81-.684q-.288-.486-.288-1.242v-7.902h2.286v7.614q0 .378.162.558.162.162.522.162.144 0 .306-.036.18-.036.324-.09l.252 1.512q-.342.18-.738.252a4.5 4.5 0 0 1-.81.072m6.785 0q-1.566 0-2.43-.666-.864-.684-1.206-1.854-.342-1.188-.342-2.754 0-1.746.342-2.826.342-1.098 1.008-1.602.684-.522 1.656-.522.63 0 1.098.234t.72.828h.072q.216-.612.756-.828.54-.234 1.188-.234 1.206 0 1.836.648t.63 1.926V212h-2.286v-7.146q0-.612-.234-.828-.216-.216-.594-.216-.396 0-.594.216t-.252.72h-1.044q-.072-.558-.324-.738a.8.8 0 0 0-.54-.198q-.558 0-.846.72t-.288 2.394q0 1.098.162 1.89.18.774.612 1.188.432.396 1.242.396.27 0 .468-.018.198-.036.36-.09l.234 1.656a2.6 2.6 0 0 1-.648.18q-.342.054-.756.054m9.594-6.138q-.792 0-1.278-.234-.468-.252-.684-.648a1.8 1.8 0 0 1-.198-.828q0-.306.072-.612.09-.324.252-.594l1.728.234a8 8 0 0 0-.072.27 3 3 0 0 0-.018.306q0 .234.126.378.144.144.486.144h2.25v1.584zm0 5.04q-.792 0-1.278-.234-.468-.252-.684-.648a1.8 1.8 0 0 1-.198-.828q0-.306.072-.612.09-.324.252-.594l1.728.234a8 8 0 0 0-.072.27 3 3 0 0 0-.018.306q0 .234.126.378.144.144.486.144h2.25v1.584zm7.364 1.098q-.684 0-1.206-.216a1.68 1.68 0 0 1-.81-.684q-.288-.486-.288-1.242v-7.902h2.286v7.614q0 .378.162.558.162.162.522.162.144 0 .306-.036.18-.036.324-.09l.252 1.512q-.342.18-.738.252a4.5 4.5 0 0 1-.81.072m4.051-.18-1.728-9.864h2.25l.576 3.78.144 1.242q.09.774.18 1.818h.054q.162-.702.288-1.278.144-.576.27-1.026l.216-.81 1.062-3.726h1.512l1.062 3.726q.108.342.234.81.126.45.252 1.026.144.576.306 1.278h.054q.09-1.044.162-1.818.09-.774.162-1.242l.594-3.78h2.232L171.28 212h-2.232l-1.332-4.518a19 19 0 0 1-.27-1.152 21 21 0 0 1-.198-1.242h-.072a24 24 0 0 1-.144.846q-.072.378-.162.756-.09.36-.216.792L165.322 212zm1.191-11.304v-.972l1.638-.684h6.39v1.656zm3.762-.954v-2.034h1.566v2.034zm2.718 0v-2.034h1.548v2.034zm-1.425-3.024v-3.186h2.034v3.186zm9.493 15.498q-2.106 0-3.132-1.044-1.008-1.062-1.008-3.186 0-.36.018-.846.036-.486.072-.882h4.122v1.548h-1.962v.288q0 .882.198 1.404.216.522.63.756t1.044.234q.684 0 1.17-.288t.738-.99q.27-.72.27-1.998 0-1.152-.27-1.908-.252-.774-.846-1.152t-1.638-.378a6 6 0 0 0-1.116.108 8 8 0 0 0-1.08.288q-.504.18-.918.432v-1.962q.378-.216.936-.36a8.5 8.5 0 0 1 1.224-.252 8.3 8.3 0 0 1 1.332-.108q1.692 0 2.718.648 1.044.63 1.512 1.8.486 1.17.486 2.754 0 1.62-.45 2.772-.45 1.134-1.44 1.728t-2.61.594m7.423-8.28v-2.844q0-.684.126-1.098.126-.432.342-.702t.45-.45l-.018-.072h-2.916l.468-1.692h5.49v1.692q-.666 0-1.17.432-.486.432-.486 1.584v3.15zm2.304 8.244q-.702 0-1.224-.216a1.7 1.7 0 0 1-.792-.684q-.288-.486-.288-1.242v-7.902h2.286v7.614q0 .378.162.558.162.162.522.162.144 0 .306-.036.18-.036.324-.09l.234 1.512q-.342.18-.738.252a4.2 4.2 0 0 1-.792.072m7.232.036q-2.268 0-3.276-1.044-.99-1.044-.99-3.024v-6.012h2.286v6.12q0 1.044.486 1.584.486.522 1.494.522 1.026 0 1.512-.522.486-.54.486-1.584v-9.666h2.286v9.558q0 1.98-1.008 3.024t-3.276 1.044m10.665-.036q-1.566 0-2.43-.666-.864-.684-1.206-1.854-.342-1.188-.342-2.754 0-1.746.342-2.826.342-1.098 1.008-1.602.684-.522 1.656-.522.63 0 1.098.234t.72.828h.072q.216-.612.756-.828.54-.234 1.188-.234 1.206 0 1.836.648t.63 1.926V212h-2.286v-7.146q0-.612-.234-.828-.216-.216-.594-.216-.396 0-.594.216t-.252.72h-1.044q-.072-.558-.324-.738a.8.8 0 0 0-.54-.198q-.558 0-.846.72t-.288 2.394q0 1.098.162 1.89.18.774.612 1.188.432.396 1.242.396.27 0 .468-.018.198-.036.36-.09l.234 1.656a2.6 2.6 0 0 1-.648.18q-.342.054-.756.054m2.812-11.484v-3.978h2.142v3.978zm9.041 11.52q-2.106 0-3.132-1.044-1.008-1.062-1.008-3.186 0-.36.018-.846.036-.486.072-.882h4.122v1.548h-1.962v.288q0 .882.198 1.404.216.522.63.756t1.044.234q.684 0 1.17-.288t.738-.99q.27-.72.27-1.998 0-1.152-.27-1.908-.252-.774-.846-1.152t-1.638-.378a6 6 0 0 0-1.116.108 8 8 0 0 0-1.08.288q-.504.18-.918.432v-1.962q.378-.216.936-.36a8.5 8.5 0 0 1 1.224-.252 8.3 8.3 0 0 1 1.332-.108q1.692 0 2.718.648 1.044.63 1.512 1.8.486 1.17.486 2.754 0 1.62-.45 2.772-.45 1.134-1.44 1.728t-2.61.594"/><defs><filter id="a" width="350" height="350" x="0" y="0" color-interpolation-filters="sRGB" filterUnits="userSpaceOnUse"><feFlood flood-opacity="0" result="BackgroundImageFix"/><feBlend in="SourceGraphic" in2="BackgroundImageFix" result="shape"/><feGaussianBlur result="effect1_foregroundBlur_451_3211" stdDeviation="50"/></filter></defs></svg>