<svg width="19" height="18" viewBox="0 0 19 18" fill="none" xmlns="http://www.w3.org/2000/svg">
<path d="M0.5 2.75C0.5 2.02065 0.789731 1.32118 1.30546 0.805456C1.82118 0.289731 2.52065 0 3.25 0H13.215C14.0769 5.14719e-05 14.9035 0.342495 15.513 0.952L17.548 2.987C18.158 3.597 18.5 4.424 18.5 5.286V15.25C18.5 15.9793 18.2103 16.6788 17.6945 17.1945C17.1788 17.7103 16.4793 18 15.75 18H3.25C2.52065 18 1.82118 17.7103 1.30546 17.1945C0.789731 16.6788 0.5 15.9793 0.5 15.25V2.75ZM3.25 1.5C2.56 1.5 2 2.06 2 2.75V15.25C2 15.94 2.56 16.5 3.25 16.5H3.5V11.25C3.5 10.6533 3.73705 10.081 4.15901 9.65901C4.58097 9.23705 5.15326 9 5.75 9H13.25C13.8467 9 14.419 9.23705 14.841 9.65901C15.2629 10.081 15.5 10.6533 15.5 11.25V16.5H15.75C16.44 16.5 17 15.94 17 15.25V5.286C17 4.821 16.816 4.376 16.487 4.048L14.452 2.013C14.1937 1.75422 13.8607 1.58286 13.5 1.523V4.25C13.5 4.54547 13.4418 4.83805 13.3287 5.11104C13.2157 5.38402 13.0499 5.63206 12.841 5.84099C12.6321 6.04992 12.384 6.21566 12.111 6.32873C11.8381 6.4418 11.5455 6.5 11.25 6.5H6.75C6.15326 6.5 5.58097 6.26295 5.15901 5.84099C4.73705 5.41903 4.5 4.84674 4.5 4.25V1.5H3.25ZM14 16.5V11.25C14 11.0511 13.921 10.8603 13.7803 10.7197C13.6397 10.579 13.4489 10.5 13.25 10.5H5.75C5.55109 10.5 5.36032 10.579 5.21967 10.7197C5.07902 10.8603 5 11.0511 5 11.25V16.5H14ZM6 1.5V4.25C6 4.664 6.336 5 6.75 5H11.25C11.4489 5 11.6397 4.92098 11.7803 4.78033C11.921 4.63968 12 4.44891 12 4.25V1.5H6Z" fill="white"/>
</svg>
